<svg width="30" height="30" viewBox="0 0 30 30" fill="none" xmlns="http://www.w3.org/2000/svg">
<path fill-rule="evenodd" clip-rule="evenodd" d="M12.5 5.625C12.5 5.95652 12.3683 6.27446 12.1339 6.50888C11.8995 6.7433 11.5815 6.875 11.25 6.875C10.9185 6.875 10.6005 6.7433 10.3661 6.50888C10.1317 6.27446 10 5.95652 10 5.625C10 5.29348 10.1317 4.97554 10.3661 4.74112C10.6005 4.5067 10.9185 4.375 11.25 4.375C11.5815 4.375 11.8995 4.5067 12.1339 4.74112C12.3683 4.97554 12.5 5.29348 12.5 5.625ZM14.375 5.625C14.375 6.4538 14.0458 7.24866 13.4597 7.83471C12.8737 8.42076 12.0788 8.75 11.25 8.75C10.4212 8.75 9.62634 8.42076 9.04029 7.83471C8.45424 7.24866 8.125 6.4538 8.125 5.625C8.125 4.7962 8.45424 4.00134 9.04029 3.41529C9.62634 2.82924 10.4212 2.5 11.25 2.5C12.0788 2.5 12.8737 2.82924 13.4597 3.41529C14.0458 4.00134 14.375 4.7962 14.375 5.625ZM17.1875 15V13.75C17.1875 12.8383 16.8253 11.964 16.1807 11.3193C15.536 10.6747 14.6617 10.3125 13.75 10.3125H8.75C7.83832 10.3125 6.96398 10.6747 6.31932 11.3193C5.67466 11.964 5.3125 12.8383 5.3125 13.75V15H7.1875V13.75C7.1875 12.8875 7.8875 12.1875 8.75 12.1875H13.75C14.6125 12.1875 15.3125 12.8875 15.3125 13.75V15H17.1875ZM5 25H16.25V23.125H5V25ZM25 20H5V18.125H25V20Z" fill="#3C4930"/>
</svg>
