<svg width="27" height="27" viewBox="0 0 27 27" fill="none" xmlns="http://www.w3.org/2000/svg">
<path d="M3.375 19.4062V23.625H7.59375L20.0362 11.1825L15.8175 6.96375L3.375 19.4062ZM6.66 21.375H5.625V20.34L15.8175 10.1475L16.8525 11.1825L6.66 21.375ZM23.2987 6.33375L20.6663 3.70125C20.4413 3.47625 20.16 3.375 19.8675 3.375C19.575 3.375 19.2937 3.4875 19.08 3.70125L17.0212 5.76L21.24 9.97875L23.2987 7.92C23.403 7.81592 23.4858 7.6923 23.5422 7.5562C23.5987 7.42011 23.6277 7.27421 23.6277 7.12687C23.6277 6.97954 23.5987 6.83364 23.5422 6.69755C23.4858 6.56145 23.403 6.43783 23.2987 6.33375Z" fill="#3C4930"/>
</svg>
