<svg width="28" height="28" viewBox="0 0 28 28" fill="none" xmlns="http://www.w3.org/2000/svg">
<path d="M4.375 3.5V24.5H6.125V17.5H23.625V3.5H4.375ZM6.125 5.25H8.75V7.875H11.375V5.25H14V7.875H16.625V5.25H19.25V7.875H21.875V10.5H19.25V13.125H21.875V15.75H19.25V13.125H16.625V15.75H14V13.125H11.375V15.75H8.75V13.125H6.125V10.5H8.75V7.875H6.125V5.25ZM8.75 10.5V13.125H11.375V10.5H8.75ZM11.375 10.5H14V7.875H11.375V10.5ZM14 10.5V13.125H16.625V10.5H14ZM16.625 10.5H19.25V7.875H16.625V10.5Z" fill="#3C4930"/>
</svg>
