<svg width="28" height="28" viewBox="0 0 28 28" fill="none" xmlns="http://www.w3.org/2000/svg">
<path d="M5.83333 24.5C5.19167 24.5 4.64256 24.2717 4.186 23.8152C3.72944 23.3586 3.50078 22.8091 3.5 22.1667V5.83334C3.5 5.19167 3.72867 4.64256 4.186 4.186C4.64333 3.72945 5.19244 3.50078 5.83333 3.5H15.1667C15.4972 3.5 15.7745 3.612 15.9985 3.836C16.2225 4.06 16.3341 4.33689 16.3333 4.66667C16.3326 4.99645 16.2206 5.27373 15.9973 5.4985C15.7741 5.72328 15.4972 5.83489 15.1667 5.83334H5.83333V22.1667H22.1667V12.8333C22.1667 12.5028 22.2787 12.2259 22.5027 12.0027C22.7267 11.7794 23.0036 11.6674 23.3333 11.6667C23.6631 11.6659 23.9404 11.7779 24.1652 12.0027C24.3899 12.2274 24.5016 12.5043 24.5 12.8333V22.1667C24.5 22.8083 24.2717 23.3578 23.8152 23.8152C23.3586 24.2725 22.8091 24.5008 22.1667 24.5H5.83333ZM10.5 19.8333C10.1694 19.8333 9.89255 19.7213 9.66933 19.4973C9.44611 19.2733 9.33411 18.9964 9.33333 18.6667C9.33255 18.3369 9.44455 18.06 9.66933 17.836C9.89411 17.612 10.171 17.5 10.5 17.5H17.5C17.8306 17.5 18.1078 17.612 18.3318 17.836C18.5558 18.06 18.6674 18.3369 18.6667 18.6667C18.6659 18.9964 18.5539 19.2737 18.3307 19.4985C18.1074 19.7233 17.8306 19.8349 17.5 19.8333H10.5ZM10.5 16.3333C10.1694 16.3333 9.89255 16.2213 9.66933 15.9973C9.44611 15.7733 9.33411 15.4964 9.33333 15.1667C9.33255 14.8369 9.44455 14.56 9.66933 14.336C9.89411 14.112 10.171 14 10.5 14H17.5C17.8306 14 18.1078 14.112 18.3318 14.336C18.5558 14.56 18.6674 14.8369 18.6667 15.1667C18.6659 15.4964 18.5539 15.7737 18.3307 15.9985C18.1074 16.2233 17.8306 16.3349 17.5 16.3333H10.5ZM10.5 12.8333C10.1694 12.8333 9.89255 12.7213 9.66933 12.4973C9.44611 12.2733 9.33411 11.9964 9.33333 11.6667C9.33255 11.3369 9.44455 11.06 9.66933 10.836C9.89411 10.612 10.171 10.5 10.5 10.5H17.5C17.8306 10.5 18.1078 10.612 18.3318 10.836C18.5558 11.06 18.6674 11.3369 18.6667 11.6667C18.6659 11.9964 18.5539 12.2737 18.3307 12.4985C18.1074 12.7233 17.8306 12.8349 17.5 12.8333H10.5ZM20.1693 10.1652C19.9453 9.94117 19.8333 9.66389 19.8333 9.33334V8.16667H18.6667C18.3361 8.16667 18.0592 8.05467 17.836 7.83067C17.6128 7.60667 17.5008 7.32978 17.5 7C17.4992 6.67023 17.6112 6.39334 17.836 6.16934C18.0608 5.94534 18.3377 5.83334 18.6667 5.83334H19.8333V4.66667C19.8333 4.33612 19.9453 4.05923 20.1693 3.836C20.3933 3.61278 20.6702 3.50078 21 3.5C21.3298 3.49923 21.6071 3.61123 21.8318 3.836C22.0566 4.06078 22.1682 4.33767 22.1667 4.66667V5.83334H23.3333C23.6639 5.83334 23.9412 5.94534 24.1652 6.16934C24.3892 6.39334 24.5008 6.67023 24.5 7C24.4992 7.32978 24.3872 7.60706 24.164 7.83184C23.9408 8.05661 23.6639 8.16823 23.3333 8.16667H22.1667V9.33334C22.1667 9.66389 22.0547 9.94117 21.8307 10.1652C21.6067 10.3892 21.3298 10.5008 21 10.5C20.6702 10.4992 20.3933 10.3872 20.1693 10.164" fill="#3C4930"/>
</svg>
