<svg width="28" height="28" viewBox="0 0 28 28" fill="none" xmlns="http://www.w3.org/2000/svg">
<path d="M21.4247 9.39157L20.5998 8.56674C19.0376 7.00421 16.9718 6.04656 14.7698 5.86419C12.5678 5.68182 10.3726 6.28655 8.57461 7.57079C6.77664 8.85503 5.4926 10.7355 4.95092 12.8776C4.40925 15.0197 4.64509 17.2844 5.61648 19.269C6.58787 21.2535 8.2318 22.8291 10.2558 23.7153C12.2798 24.6016 14.5525 24.741 16.6697 24.1089C18.7868 23.4768 20.6111 22.114 21.8178 20.2631C23.0246 18.4123 23.5355 16.1933 23.2598 14.0011M21.4247 9.39157L16.4745 9.39274M21.4247 9.39157V4.44141" stroke="#3C4930" stroke-width="2" stroke-linecap="round" stroke-linejoin="round"/>
</svg>
