<svg width="973" height="385" viewBox="0 0 973 385" fill="none" xmlns="http://www.w3.org/2000/svg">
<path d="M0.000112534 308.364V254.727L158 5.09094H202.727V81.4546H175.455L69.091 250V252.909H289.636V308.364H0.000112534ZM177.636 377.455V292L178.364 268V5.09094H242V377.455H177.636ZM485.364 384.545C455.424 384.545 429.727 376.97 408.273 361.818C386.94 346.545 370.515 324.545 359 295.818C347.606 266.97 341.909 232.242 341.909 191.636C342.03 151.03 347.788 116.485 359.182 88C370.697 59.394 387.121 37.5758 408.455 22.5455C429.909 7.51519 455.546 3.05176e-05 485.364 3.05176e-05C515.182 3.05176e-05 540.818 7.51519 562.273 22.5455C583.727 37.5758 600.152 59.394 611.546 88C623.061 116.606 628.818 151.152 628.818 191.636C628.818 232.364 623.061 267.152 611.546 296C600.152 324.727 583.727 346.667 562.273 361.818C540.94 376.97 515.303 384.545 485.364 384.545ZM485.364 327.636C508.636 327.636 527 316.182 540.455 293.273C554.03 270.242 560.818 236.364 560.818 191.636C560.818 162.061 557.727 137.212 551.546 117.091C545.364 96.9697 536.636 81.8182 525.364 71.6364C514.091 61.3334 500.758 56.1819 485.364 56.1819C462.212 56.1819 443.909 67.697 430.455 90.7273C417 113.636 410.212 147.273 410.091 191.636C409.97 221.333 412.94 246.303 419 266.545C425.182 286.788 433.909 302.061 445.182 312.364C456.455 322.545 469.849 327.636 485.364 327.636ZM682.5 308.364V254.727L840.5 5.09094H885.227V81.4546H857.955L751.591 250V252.909H972.136V308.364H682.5ZM860.136 377.455V292L860.864 268V5.09094H924.5V377.455H860.136Z" fill="#E8E7DE"/>
</svg>
