<svg width="34" height="34" viewBox="0 0 34 34" fill="none" xmlns="http://www.w3.org/2000/svg">
<g clip-path="url(#clip0_333_2514)">
<path fill-rule="evenodd" clip-rule="evenodd" d="M18.0016 22.2515C17.7359 22.5171 17.3756 22.6663 17 22.6663C16.6243 22.6663 16.2641 22.5171 15.9984 22.2515L7.98431 14.2374C7.849 14.1067 7.74108 13.9504 7.66683 13.7776C7.59259 13.6047 7.55351 13.4188 7.55187 13.2307C7.55024 13.0426 7.58608 12.8561 7.65731 12.682C7.72854 12.5079 7.83374 12.3497 7.96675 12.2167C8.09977 12.0837 8.25794 11.9785 8.43204 11.9073C8.60615 11.836 8.79269 11.8002 8.9808 11.8018C9.1689 11.8034 9.35479 11.8425 9.52763 11.9168C9.70047 11.991 9.85679 12.0989 9.98748 12.2342L17 19.2467L24.0125 12.2342C24.2797 11.9762 24.6375 11.8334 25.009 11.8366C25.3804 11.8399 25.7357 11.9888 25.9984 12.2515C26.261 12.5142 26.41 12.8695 26.4133 13.2409C26.4165 13.6124 26.2737 13.9702 26.0156 14.2374L18.0016 22.2515Z" fill="black"/>
</g>
<defs>
<clipPath id="clip0_333_2514">
<rect width="34" height="34" fill="white"/>
</clipPath>
</defs>
</svg>
