<svg width="34" height="34" viewBox="0 0 34 34" fill="none" xmlns="http://www.w3.org/2000/svg">
<g clip-path="url(#clip0_333_2510)">
<path fill-rule="evenodd" clip-rule="evenodd" d="M22.2516 15.9984C22.5171 16.2641 22.6663 16.6244 22.6663 17C22.6663 17.3757 22.5171 17.7359 22.2516 18.0016L14.2375 26.0157C14.1068 26.151 13.9505 26.2589 13.7776 26.3332C13.6048 26.4074 13.4189 26.4465 13.2308 26.4481C13.0427 26.4498 12.8561 26.4139 12.682 26.3427C12.5079 26.2714 12.3498 26.1663 12.2168 26.0332C12.0837 25.9002 11.9785 25.7421 11.9073 25.5679C11.8361 25.3938 11.8002 25.2073 11.8019 25.0192C11.8035 24.8311 11.8426 24.6452 11.9168 24.4724C11.9911 24.2995 12.099 24.1432 12.2343 24.0125L19.2468 17L12.2343 9.98751C11.9763 9.72033 11.8335 9.36247 11.8367 8.99103C11.8399 8.61958 11.9889 8.26426 12.2516 8.0016C12.5142 7.73894 12.8695 7.58995 13.241 7.58672C13.6124 7.5835 13.9703 7.72629 14.2375 7.98434L22.2516 15.9984Z" fill="black"/>
</g>
<defs>
<clipPath id="clip0_333_2510">
<rect width="34" height="34" fill="white"/>
</clipPath>
</defs>
</svg>
