<svg width="16" height="14" viewBox="0 0 16 14" fill="none" xmlns="http://www.w3.org/2000/svg">
<path d="M8.9817 0.567417C8.88271 0.394981 8.73998 0.251716 8.56791 0.152089C8.39584 0.0524622 8.20053 0 8.0017 0C7.80287 0 7.60756 0.0524622 7.43549 0.152089C7.26343 0.251716 7.12069 0.394981 7.0217 0.567417L0.164702 12.2344C-0.292298 13.0124 0.255702 14.0014 1.1447 14.0014H14.8577C15.7467 14.0014 16.2957 13.0114 15.8377 12.2344L8.9817 0.567417ZM7.9997 4.00142C8.5347 4.00142 8.9537 4.46342 8.8997 4.99642L8.5497 8.50342C8.53794 8.64119 8.4749 8.76953 8.37306 8.86305C8.27121 8.95658 8.13797 9.00847 7.9997 9.00847C7.86143 9.00847 7.72819 8.95658 7.62635 8.86305C7.5245 8.76953 7.46146 8.64119 7.4497 8.50342L7.0997 4.99642C7.08713 4.87065 7.10105 4.74365 7.14055 4.62358C7.18005 4.50352 7.24426 4.39306 7.32905 4.29933C7.41383 4.20559 7.51731 4.13066 7.63282 4.07934C7.74833 4.02803 7.87331 4.00149 7.9997 4.00142ZM8.0017 10.0014C8.26692 10.0014 8.52127 10.1068 8.70881 10.2943C8.89634 10.4818 9.0017 10.7362 9.0017 11.0014C9.0017 11.2666 8.89634 11.521 8.70881 11.7085C8.52127 11.8961 8.26692 12.0014 8.0017 12.0014C7.73649 12.0014 7.48213 11.8961 7.2946 11.7085C7.10706 11.521 7.0017 11.2666 7.0017 11.0014C7.0017 10.7362 7.10706 10.4818 7.2946 10.2943C7.48213 10.1068 7.73649 10.0014 8.0017 10.0014Z" fill="#1E2022"/>
</svg>
