<svg width="22" height="22" viewBox="0 0 22 22" fill="none" xmlns="http://www.w3.org/2000/svg">
<g clip-path="url(#clip0_375_1819)">
<path d="M10.3125 5.5C10.4948 5.5 10.6697 5.57243 10.7986 5.70136C10.9276 5.8303 11 6.00516 11 6.1875V9.625H14.4375C14.6198 9.625 14.7947 9.69743 14.9236 9.82636C15.0526 9.9553 15.125 10.1302 15.125 10.3125C15.125 10.4948 15.0526 10.6697 14.9236 10.7986C14.7947 10.9276 14.6198 11 14.4375 11H11V14.4375C11 14.6198 10.9276 14.7947 10.7986 14.9236C10.6697 15.0526 10.4948 15.125 10.3125 15.125C10.1302 15.125 9.9553 15.0526 9.82636 14.9236C9.69743 14.7947 9.625 14.6198 9.625 14.4375V11H6.1875C6.00516 11 5.8303 10.9276 5.70136 10.7986C5.57243 10.6697 5.5 10.4948 5.5 10.3125C5.5 10.1302 5.57243 9.9553 5.70136 9.82636C5.8303 9.69743 6.00516 9.625 6.1875 9.625H9.625V6.1875C9.625 6.00516 9.69743 5.8303 9.82636 5.70136C9.9553 5.57243 10.1302 5.5 10.3125 5.5Z" fill="#3C4930"/>
<path fill-rule="evenodd" clip-rule="evenodd" d="M0 8.79995C0 5.71995 0 4.17995 0.5995 2.99745C1.12935 1.96284 1.97114 1.12105 3.00575 0.591199C4.18275 -0.00830074 5.72825 -0.00830078 8.80825 -0.00830078H11.8333C14.9132 -0.00830078 16.4533 -0.00830074 17.6357 0.591199C18.6711 1.11782 19.5058 1.95932 20.042 2.99745C20.6415 4.17445 20.6415 5.71995 20.6415 8.79995V11.8249C20.6415 14.9049 20.6415 16.4449 20.042 17.6274C19.5122 18.6621 18.6704 19.5038 17.6357 20.0337C16.4587 20.6332 14.9132 20.6332 11.8333 20.6332H8.80825C5.72825 20.6332 4.18825 20.6332 3.00575 20.0337C1.97114 19.5038 1.12935 18.6621 0.5995 17.6274C0 16.4504 0 14.9049 0 11.8249V8.79995ZM8.8 1.37495H11.825C13.3925 1.37495 14.4787 1.37495 15.3312 1.44507C16.1631 1.51382 16.6416 1.64032 17.0087 1.82457C17.783 2.22145 18.4131 2.85152 18.81 3.62582C18.9943 3.98745 19.1208 4.46595 19.1895 5.30332C19.2583 6.1517 19.2596 7.24207 19.2596 8.80957V11.8346C19.2596 13.4021 19.2596 14.4883 19.1895 15.3408C19.1208 16.1727 18.9943 16.6512 18.81 17.0183C18.4147 17.7937 17.7842 18.4242 17.0087 18.8196C16.6471 19.0038 16.1686 19.1303 15.3312 19.1991C14.4829 19.2678 13.3925 19.2692 11.825 19.2692H8.8C7.2325 19.2692 6.14625 19.2692 5.29375 19.2004C4.46187 19.1317 3.98338 19.0038 3.61625 18.8196C2.84084 18.4242 2.21035 17.7937 1.815 17.0183C1.63075 16.6567 1.50425 16.1796 1.4355 15.3408C1.36675 14.4924 1.36537 13.4021 1.36537 11.8346V8.80957C1.36537 7.24207 1.36538 6.15582 1.4355 5.30332C1.50425 4.47145 1.63075 3.99295 1.815 3.62582C2.21188 2.85152 2.84195 2.22145 3.61625 1.82457C3.97788 1.64032 4.45637 1.51382 5.29375 1.44507C6.14212 1.37632 7.2325 1.37495 8.8 1.37495Z" fill="#3C4930"/>
</g>
<defs>
<clipPath id="clip0_375_1819">
<rect width="22" height="22" fill="white"/>
</clipPath>
</defs>
</svg>
