<svg width="19" height="28" viewBox="0 0 19 28" fill="none" xmlns="http://www.w3.org/2000/svg">
<path d="M8.25313 20.9999L14.9625 14.4083L13.2406 12.7166L8.22344 17.6458L5.72969 15.1958L4.0375 16.8583L8.25313 20.9999ZM2.375 25.6666C1.72187 25.6666 1.16296 25.4383 0.69825 24.9818C0.233541 24.5252 0.000791667 23.9757 0 23.3333V4.66659C0 4.02492 0.23275 3.47581 0.69825 3.01925C1.16375 2.5627 1.72267 2.33403 2.375 2.33325H11.875L19 9.33325V23.3333C19 23.9749 18.7676 24.5244 18.3029 24.9818C17.8382 25.4391 17.2789 25.6674 16.625 25.6666H2.375ZM10.6875 10.4999V4.66659H2.375V23.3333H16.625V10.4999H10.6875Z" fill="#3C4930"/>
</svg>
