<svg width="21" height="24" viewBox="0 0 21 24" fill="none" xmlns="http://www.w3.org/2000/svg">
<path d="M14.8751 2V6.44444M6.12506 2V6.44444M1.75006 10.8889H19.2501M9.40631 15.3333H10.5001V18.6667M1.75006 6.44444C1.75006 5.85507 1.98053 5.28984 2.39076 4.8731C2.801 4.45635 3.3574 4.22222 3.93756 4.22222H17.0626C17.6427 4.22222 18.1991 4.45635 18.6094 4.8731C19.0196 5.28984 19.2501 5.85507 19.2501 6.44444V19.7778C19.2501 20.3671 19.0196 20.9324 18.6094 21.3491C18.1991 21.7659 17.6427 22 17.0626 22H3.93756C3.3574 22 2.801 21.7659 2.39076 21.3491C1.98053 20.9324 1.75006 20.3671 1.75006 19.7778V6.44444Z" stroke="#3C4930" stroke-width="2" stroke-linecap="round" stroke-linejoin="round"/>
</svg>
